{
	"asset":{
		"generator":"Khronos glTF Blender I/O v4.5.48",
		"version":"2.0"
	},
	"scene":0,
	"scenes":[
		{
			"name":"Scene",
			"nodes":[
				5
			]
		}
	],
	"nodes":[
		{
			"name":"Circle",
			"translation":[
				0.1354665756225586,
				0.24383243918418884,
				3.5554604530334473
			]
		},
		{
			"mesh":0,
			"name":"Circle.001",
			"rotation":[
				0.7071068286895752,
				0,
				0,
				0.7071068286895752
			],
			"translation":[
				3.991966962814331,
				0.031398121267557144,
				3.5554604530334473
			]
		},
		{
			"mesh":1,
			"name":"Cube",
			"rotation":[
				0.999717116355896,
				-0.0022259827237576246,
				-0.01741037145256996,
				0.0160536989569664
			],
			"scale":[
				0.3089388906955719,
				0.20780330896377563,
				1
			],
			"translation":[
				7.159508228302002,
				1.7891615629196167,
				2.600311517715454
			]
		},
		{
			"mesh":2,
			"name":"Cube.003",
			"rotation":[
				-0.004929832182824612,
				0.7252950668334961,
				-0.005259103141725063,
				0.6884005069732666
			],
			"scale":[
				3.6691977977752686,
				0.19556072354316711,
				0.14895164966583252
			],
			"translation":[
				7.13913106918335,
				1.7542906999588013,
				-0.8221020698547363
			]
		},
		{
			"mesh":3,
			"name":"Plane.001",
			"rotation":[
				-0.01099479291588068,
				0.011251057498157024,
				-0.6988282799720764,
				0.7151165008544922
			],
			"scale":[
				0.17252428829669952,
				0.999742329120636,
				1
			],
			"translation":[
				7.389001846313477,
				1.7541455030441284,
				-0.023276567459106445
			]
		},
		{
			"children":[
				0,
				1,
				2,
				3,
				4
			],
			"name":"Empty.002"
		}
	],
	"animations":[
		{
			"channels":[
				{
					"sampler":0,
					"target":{
						"node":5,
						"path":"translation"
					}
				}
			],
			"name":"Empty.002Action",
			"samplers":[
				{
					"input":16,
					"interpolation":"LINEAR",
					"output":17
				}
			]
		},
		{
			"channels":[
				{
					"sampler":0,
					"target":{
						"node":4,
						"path":"translation"
					}
				},
				{
					"sampler":1,
					"target":{
						"node":4,
						"path":"rotation"
					}
				},
				{
					"sampler":2,
					"target":{
						"node":4,
						"path":"scale"
					}
				}
			],
			"name":"Plane.001Action",
			"samplers":[
				{
					"input":16,
					"interpolation":"LINEAR",
					"output":18
				},
				{
					"input":16,
					"interpolation":"LINEAR",
					"output":19
				},
				{
					"input":16,
					"interpolation":"LINEAR",
					"output":20
				}
			]
		}
	],
	"materials":[
		{
			"doubleSided":true,
			"name":"Material",
			"pbrMetallicRoughness":{
				"baseColorFactor":[
					0.006020847707986832,
					0.006020847707986832,
					0.006020847707986832,
					1
				],
				"metallicFactor":0,
				"roughnessFactor":0.5
			}
		},
		{
			"doubleSided":true,
			"name":"Material.002"
		},
		{
			"doubleSided":true,
			"name":"Material.003"
		},
		{
			"doubleSided":true,
			"name":"Material.005",
			"pbrMetallicRoughness":{
				"baseColorTexture":{
					"index":0
				},
				"metallicFactor":0,
				"roughnessFactor":0.5
			}
		}
	],
	"meshes":[
		{
			"name":"Circle.001",
			"primitives":[
				{
					"attributes":{
						"POSITION":0,
						"NORMAL":1,
						"TEXCOORD_0":2
					},
					"indices":3,
					"material":0
				}
			]
		},
		{
			"name":"Cube",
			"primitives":[
				{
					"attributes":{
						"POSITION":4,
						"NORMAL":5,
						"TEXCOORD_0":6
					},
					"indices":7,
					"material":1
				}
			]
		},
		{
			"name":"Cube.003",
			"primitives":[
				{
					"attributes":{
						"POSITION":8,
						"NORMAL":9,
						"TEXCOORD_0":10
					},
					"indices":11,
					"material":2
				}
			]
		},
		{
			"name":"Plane.001",
			"primitives":[
				{
					"attributes":{
						"POSITION":12,
						"NORMAL":13,
						"TEXCOORD_0":14
					},
					"indices":15,
					"material":3
				}
			]
		}
	],
	"textures":[
		{
			"sampler":0,
			"source":0
		}
	],
	"images":[
		{
			"mimeType":"image/png",
			"name":"MetalPlates015A_1K-PNG_Color",
			"uri":"MetalPlates015A_1K-PNG_Color.png"
		}
	],
	"accessors":[
		{
			"bufferView":0,
			"componentType":5126,
			"count":258477,
			"max":[
				3.4836602210998535,
				0.4395265281200409,
				2.38177227973938
			],
			"min":[
				-11.19665813446045,
				-0.32166457176208496,
				-2.407602071762085
			],
			"type":"VEC3"
		},
		{
			"bufferView":1,
			"componentType":5126,
			"count":258477,
			"type":"VEC3"
		},
		{
			"bufferView":2,
			"componentType":5126,
			"count":258477,
			"type":"VEC2"
		},
		{
			"bufferView":3,
			"componentType":5125,
			"count":1550592,
			"type":"SCALAR"
		},
		{
			"bufferView":4,
			"componentType":5126,
			"count":112,
			"max":[
				1.0023086071014404,
				1.291353464126587,
				0.2676347494125366
			],
			"min":[
				-46.672481536865234,
				-1.0595027208328247,
				-1
			],
			"type":"VEC3"
		},
		{
			"bufferView":5,
			"componentType":5126,
			"count":112,
			"type":"VEC3"
		},
		{
			"bufferView":6,
			"componentType":5126,
			"count":112,
			"type":"VEC2"
		},
		{
			"bufferView":7,
			"componentType":5123,
			"count":168,
			"type":"SCALAR"
		},
		{
			"bufferView":8,
			"componentType":5126,
			"count":446,
			"max":[
				0.8940802812576294,
				1.104578971862793,
				1.686545968055725
			],
			"min":[
				-1.002936840057373,
				-1.841270089149475,
				-97.57228088378906
			],
			"type":"VEC3"
		},
		{
			"bufferView":9,
			"componentType":5126,
			"count":446,
			"type":"VEC3"
		},
		{
			"bufferView":10,
			"componentType":5126,
			"count":446,
			"type":"VEC2"
		},
		{
			"bufferView":11,
			"componentType":5123,
			"count":672,
			"type":"SCALAR"
		},
		{
			"bufferView":12,
			"componentType":5126,
			"count":16,
			"max":[
				1.8147976398468018,
				-0.015133020468056202,
				0.9979740977287292
			],
			"min":[
				-3.1344680786132812,
				-14.533209800720215,
				-2.1478166580200195
			],
			"type":"VEC3"
		},
		{
			"bufferView":13,
			"componentType":5126,
			"count":16,
			"type":"VEC3"
		},
		{
			"bufferView":14,
			"componentType":5126,
			"count":16,
			"type":"VEC2"
		},
		{
			"bufferView":15,
			"componentType":5123,
			"count":24,
			"type":"SCALAR"
		},
		{
			"bufferView":16,
			"componentType":5126,
			"count":1,
			"max":[
				0.041666666666666664
			],
			"min":[
				0.041666666666666664
			],
			"type":"SCALAR"
		},
		{
			"bufferView":17,
			"componentType":5126,
			"count":1,
			"type":"VEC3"
		},
		{
			"bufferView":18,
			"componentType":5126,
			"count":1,
			"type":"VEC3"
		},
		{
			"bufferView":19,
			"componentType":5126,
			"count":1,
			"type":"VEC4"
		},
		{
			"bufferView":20,
			"componentType":5126,
			"count":1,
			"type":"VEC3"
		}
	],
	"bufferViews":[
		{
			"buffer":0,
			"byteLength":3101724,
			"byteOffset":0,
			"target":34962
		},
		{
			"buffer":0,
			"byteLength":3101724,
			"byteOffset":3101724,
			"target":34962
		},
		{
			"buffer":0,
			"byteLength":2067816,
			"byteOffset":6203448,
			"target":34962
		},
		{
			"buffer":0,
			"byteLength":6202368,
			"byteOffset":8271264,
			"target":34963
		},
		{
			"buffer":0,
			"byteLength":1344,
			"byteOffset":14473632,
			"target":34962
		},
		{
			"buffer":0,
			"byteLength":1344,
			"byteOffset":14474976,
			"target":34962
		},
		{
			"buffer":0,
			"byteLength":896,
			"byteOffset":14476320,
			"target":34962
		},
		{
			"buffer":0,
			"byteLength":336,
			"byteOffset":14477216,
			"target":34963
		},
		{
			"buffer":0,
			"byteLength":5352,
			"byteOffset":14477552,
			"target":34962
		},
		{
			"buffer":0,
			"byteLength":5352,
			"byteOffset":14482904,
			"target":34962
		},
		{
			"buffer":0,
			"byteLength":3568,
			"byteOffset":14488256,
			"target":34962
		},
		{
			"buffer":0,
			"byteLength":1344,
			"byteOffset":14491824,
			"target":34963
		},
		{
			"buffer":0,
			"byteLength":192,
			"byteOffset":14493168,
			"target":34962
		},
		{
			"buffer":0,
			"byteLength":192,
			"byteOffset":14493360,
			"target":34962
		},
		{
			"buffer":0,
			"byteLength":128,
			"byteOffset":14493552,
			"target":34962
		},
		{
			"buffer":0,
			"byteLength":48,
			"byteOffset":14493680,
			"target":34963
		},
		{
			"buffer":0,
			"byteLength":4,
			"byteOffset":14493728
		},
		{
			"buffer":0,
			"byteLength":12,
			"byteOffset":14493732
		},
		{
			"buffer":0,
			"byteLength":12,
			"byteOffset":14493744
		},
		{
			"buffer":0,
			"byteLength":16,
			"byteOffset":14493756
		},
		{
			"buffer":0,
			"byteLength":12,
			"byteOffset":14493772
		}
	],
	"samplers":[
		{
			"magFilter":9729,
			"minFilter":9987
		}
	],
	"buffers":[
		{
			"byteLength":14493784,
			"uri":"RB4306_TRYON.bin"
		}
	]
}
