{
	"asset":{
		"generator":"Khronos glTF Blender I/O v4.5.48",
		"version":"2.0"
	},
	"scene":0,
	"scenes":[
		{
			"name":"Scene",
			"nodes":[
				0,
				1,
				2
			]
		}
	],
	"nodes":[
		{
			"name":"Empty",
			"rotation":[
				0.70710688829422,
				0,
				0,
				0.7071066498756409
			],
			"scale":[
				3.9820218086242676,
				3.9820218086242676,
				3.9820218086242676
			]
		},
		{
			"mesh":0,
			"name":"Circle",
			"rotation":[
				-0.7132487297058105,
				0,
				0,
				0.7009111046791077
			],
			"translation":[
				5.012369632720947,
				1.473022699356079,
				0
			]
		},
		{
			"mesh":1,
			"name":"vere",
			"rotation":[
				-0.7132487297058105,
				0,
				0,
				0.7009111046791077
			],
			"translation":[
				5.012369632720947,
				1.473022699356079,
				0
			]
		}
	],
	"materials":[
		{
			"doubleSided":true,
			"name":"Material.001",
			"pbrMetallicRoughness":{
				"baseColorFactor":[
					0.0006108178058639169,
					0.002371943322941661,
					0.0060103293508291245,
					1
				],
				"metallicFactor":0,
				"roughnessFactor":0.5
			}
		},
		{
			"doubleSided":true,
			"name":"Material",
			"pbrMetallicRoughness":{
				"baseColorFactor":[
					0.00029443431412801147,
					0.02095823548734188,
					0.0004238008987158537,
					1
				],
				"metallicFactor":0,
				"roughnessFactor":0.5
			}
		}
	],
	"meshes":[
		{
			"name":"Circle",
			"primitives":[
				{
					"attributes":{
						"POSITION":0,
						"NORMAL":1,
						"TEXCOORD_0":2,
						"TANGENT":3
					},
					"indices":4,
					"material":0
				}
			]
		},
		{
			"name":"Circle.003",
			"primitives":[
				{
					"attributes":{
						"POSITION":5,
						"NORMAL":6,
						"TEXCOORD_0":7,
						"TANGENT":8
					},
					"indices":9,
					"material":1
				}
			]
		}
	],
	"accessors":[
		{
			"bufferView":0,
			"componentType":5126,
			"count":166,
			"max":[
				4.253947734832764,
				4.905237674713135,
				3.004903554916382
			],
			"min":[
				-5.0123701095581055,
				-1.0961703062057495,
				-3.3332173824310303
			],
			"type":"VEC3"
		},
		{
			"bufferView":1,
			"componentType":5126,
			"count":166,
			"type":"VEC3"
		},
		{
			"bufferView":2,
			"componentType":5126,
			"count":166,
			"type":"VEC2"
		},
		{
			"bufferView":3,
			"componentType":5126,
			"count":166,
			"type":"VEC4"
		},
		{
			"bufferView":4,
			"componentType":5123,
			"count":984,
			"type":"SCALAR"
		},
		{
			"bufferView":5,
			"componentType":5126,
			"count":31,
			"max":[
				3.0306243896484375,
				-0.354657381772995,
				2.491482973098755
			],
			"min":[
				-3.3509092330932617,
				-0.733220100402832,
				-2.864816188812256
			],
			"type":"VEC3"
		},
		{
			"bufferView":6,
			"componentType":5126,
			"count":31,
			"type":"VEC3"
		},
		{
			"bufferView":7,
			"componentType":5126,
			"count":31,
			"type":"VEC2"
		},
		{
			"bufferView":8,
			"componentType":5126,
			"count":31,
			"type":"VEC4"
		},
		{
			"bufferView":9,
			"componentType":5123,
			"count":87,
			"type":"SCALAR"
		}
	],
	"bufferViews":[
		{
			"buffer":0,
			"byteLength":1992,
			"byteOffset":0,
			"target":34962
		},
		{
			"buffer":0,
			"byteLength":1992,
			"byteOffset":1992,
			"target":34962
		},
		{
			"buffer":0,
			"byteLength":1328,
			"byteOffset":3984,
			"target":34962
		},
		{
			"buffer":0,
			"byteLength":2656,
			"byteOffset":5312,
			"target":34962
		},
		{
			"buffer":0,
			"byteLength":1968,
			"byteOffset":7968,
			"target":34963
		},
		{
			"buffer":0,
			"byteLength":372,
			"byteOffset":9936,
			"target":34962
		},
		{
			"buffer":0,
			"byteLength":372,
			"byteOffset":10308,
			"target":34962
		},
		{
			"buffer":0,
			"byteLength":248,
			"byteOffset":10680,
			"target":34962
		},
		{
			"buffer":0,
			"byteLength":496,
			"byteOffset":10928,
			"target":34962
		},
		{
			"buffer":0,
			"byteLength":174,
			"byteOffset":11424,
			"target":34963
		}
	],
	"buffers":[
		{
			"byteLength":11600,
			"uri":"try_on_eyeglass.bin"
		}
	]
}
